<svg data-v-423bf9ae="" xmlns="http://www.w3.org/2000/svg" viewBox="0 0 450.28571174834946 185" class="iconAbove"><!----><!----><!----><g data-v-423bf9ae="" id="34323734-011d-40df-8805-049d6aaadc3c" fill="#000000" transform="matrix(6.349206477356088,0,0,6.349206477356088,-0.6349222207992398,124.17280960014546)"><path d="M1.99 9.44C3.63 9.44 4.35 8.54 4.35 6.73C4.35 5.88 4.12 5.17 3.75 4.72L3.75 4.72C3.75 4.72 4.35 4.00 4.35 2.70C4.35 0.90 3.63 0 1.99 0L0.60 0C0.32 0 0.10 0.22 0.10 0.50L0.10 8.93C0.10 9.21 0.32 9.44 0.60 9.44ZM1.99 1.39C2.67 1.39 2.95 1.76 2.95 2.70C2.95 3.64 2.67 4.02 1.99 4.02L1.50 4.02L1.50 1.39ZM1.99 5.40C2.67 5.40 2.95 5.78 2.95 6.73C2.95 7.67 2.67 8.05 1.99 8.05L1.50 8.05L1.50 5.40ZM5.32 6.86C5.32 8.34 5.94 9.42 7.62 9.42C9.24 9.42 9.91 8.43 9.91 6.86L9.91 0.49C9.91 0.21 9.69-0.01 9.41-0.01L9.02-0.01C8.75-0.01 8.53 0.21 8.53 0.49L8.53 6.86C8.53 7.53 8.33 8.04 7.62 8.04C6.93 8.04 6.71 7.60 6.71 6.86L6.71 0.49C6.71 0.21 6.48-0.01 6.20-0.01L5.81-0.01C5.54-0.01 5.32 0.21 5.32 0.49ZM10.82 6.69C10.82 8.53 11.59 9.42 13.13 9.42C14.62 9.42 15.44 8.58 15.44 7.01C15.44 5.66 14.50 4.94 13.58 4.23L13.59 4.23C12.91 3.70 12.22 3.15 12.22 2.44C12.22 1.71 12.54 1.39 13.13 1.39C13.75 1.39 14.04 1.81 14.04 2.73L14.04 2.93C14.04 3.21 14.27 3.43 14.55 3.43L14.94 3.43C15.22 3.43 15.44 3.21 15.44 2.93L15.44 2.73C15.44 0.95 14.64-0.01 13.13-0.01C11.65-0.01 10.82 0.90 10.82 2.48C10.82 3.86 11.79 4.62 12.71 5.35L12.71 5.33C13.40 5.87 14.04 6.38 14.04 7.04C14.04 7.78 13.72 8.04 13.13 8.04C12.94 8.04 12.70 8.01 12.54 7.85C12.35 7.69 12.22 7.36 12.22 6.69L12.22 6.51C12.22 6.23 11.98 6.01 11.72 6.01L11.33 6.01C11.05 6.01 10.82 6.23 10.82 6.51ZM15.92 0.88C15.92 1.16 16.14 1.39 16.42 1.39L17.56 1.39L17.56 8.92C17.56 9.20 17.78 9.42 18.06 9.42L18.44 9.42C18.72 9.42 18.94 9.20 18.94 8.92L18.94 1.39L20.09 1.39C20.37 1.39 20.59 1.16 20.59 0.88L20.59 0.49C20.59 0.21 20.37-0.01 20.09-0.01L16.42-0.01C16.14-0.01 15.92 0.21 15.92 0.49ZM22.93 0.50C22.93 0.22 22.69 0 22.43 0L22.04 0C21.76 0 21.53 0.22 21.53 0.50L21.53 8.93C21.53 9.21 21.76 9.44 22.04 9.44L22.43 9.44C22.69 9.44 22.93 9.21 22.93 8.93ZM28.01 9.44C28.29 9.44 28.52 9.21 28.52 8.93L28.52 0.50C28.52 0.22 28.29 0 28.01 0L27.62 0C27.34 0 27.12 0.22 27.12 0.50L27.12 5.12L25.17 0.31C25.12 0.15 24.89 0 24.71 0L24.37 0C24.11 0 23.87 0.22 23.87 0.50L23.87 8.93C23.87 9.21 24.11 9.44 24.37 9.44L24.78 9.44C25.05 9.44 25.28 9.21 25.28 8.93L25.28 4.31L27.23 9.13C27.29 9.28 27.52 9.44 27.69 9.44ZM30.93 0.50C30.93 0.22 30.70 0 30.42 0L30.03 0C29.76 0 29.54 0.22 29.54 0.50L29.54 1.60C29.54 1.88 29.76 2.10 30.03 2.10L30.42 2.10C30.70 2.10 30.93 1.88 30.93 1.60ZM36.37 9.44C38.01 9.44 38.74 8.54 38.74 6.73C38.74 5.88 38.50 5.17 38.14 4.72L38.14 4.72C38.14 4.72 38.74 4.00 38.74 2.70C38.74 0.90 38.01 0 36.37 0L34.99 0C34.71 0 34.48 0.22 34.48 0.50L34.48 8.93C34.48 9.21 34.71 9.44 34.99 9.44ZM36.37 1.39C37.06 1.39 37.34 1.76 37.34 2.70C37.34 3.64 37.06 4.02 36.37 4.02L35.88 4.02L35.88 1.39ZM36.37 5.40C37.06 5.40 37.34 5.78 37.34 6.73C37.34 7.67 37.06 8.05 36.37 8.05L35.88 8.05L35.88 5.40ZM39.70 6.86C39.70 8.34 40.32 9.42 42 9.42C43.62 9.42 44.30 8.43 44.30 6.86L44.30 0.49C44.30 0.21 44.07-0.01 43.79-0.01L43.40-0.01C43.13-0.01 42.91 0.21 42.91 0.49L42.91 6.86C42.91 7.53 42.71 8.04 42 8.04C41.31 8.04 41.09 7.60 41.09 6.86L41.09 0.49C41.09 0.21 40.87-0.01 40.59-0.01L40.19-0.01C39.93-0.01 39.70 0.21 39.70 0.49ZM47.49 9.44C49.17 9.44 49.95 8.48 49.95 6.66L49.95 2.77C49.95 0.95 49.17 0 47.49 0L46.06 0C45.78 0 45.56 0.22 45.56 0.50L45.56 8.93C45.56 9.21 45.78 9.44 46.06 9.44ZM47.49 1.39C48.23 1.39 48.54 1.83 48.54 2.77L48.54 6.66C48.54 7.60 48.23 8.05 47.49 8.05L46.94 8.05L46.94 1.39ZM53.82 4.70C52.99 4.70 53.03 6.10 53.82 6.10L54.31 6.10L54.31 6.71C54.31 7.62 54.01 8.05 53.41 8.05C52.79 8.05 52.50 7.62 52.50 6.71C52.50 6.34 52.50 4.94 52.50 2.72C52.50 2.07 52.63 1.74 52.82 1.57C52.98 1.41 53.21 1.39 53.41 1.39C53.61 1.39 53.83 1.41 54.00 1.57C54.17 1.72 54.31 2.06 54.31 2.72L54.31 2.91C54.31 3.19 54.53 3.42 54.81 3.42L55.22 3.42C55.48 3.42 55.71 3.19 55.71 2.91L55.71 2.72C55.71 0.94 54.95 0 53.41 0C51.87 0 51.10 0.94 51.10 2.72L51.10 6.71C51.10 8.47 51.87 9.44 53.41 9.44C54.95 9.44 55.71 8.48 55.71 6.71L55.71 5.21C55.71 4.93 55.48 4.70 55.22 4.70L53.82 4.70ZM57.22 0C56.94 0 56.71 0.22 56.71 0.50L56.71 8.93C56.71 9.21 56.94 9.44 57.22 9.44L60.24 9.44C60.52 9.44 60.75 9.21 60.75 8.93L60.75 8.55C60.75 8.27 60.52 8.05 60.24 8.05L58.10 8.05L58.10 5.40L59.86 5.40C60.14 5.40 60.37 5.18 60.37 4.90L60.37 4.52C60.37 4.24 60.14 4.02 59.86 4.02L58.10 4.02L58.10 1.39L60.24 1.39C60.52 1.39 60.75 1.16 60.75 0.88L60.75 0.50C60.75 0.22 60.52 0 60.24 0ZM61.61 0.88C61.61 1.16 61.84 1.39 62.12 1.39L63.25 1.39L63.25 8.92C63.25 9.20 63.48 9.42 63.76 9.42L64.13 9.42C64.41 9.42 64.64 9.20 64.64 8.92L64.64 1.39L65.79 1.39C66.07 1.39 66.29 1.16 66.29 0.88L66.29 0.49C66.29 0.21 66.07-0.01 65.79-0.01L62.12-0.01C61.84-0.01 61.61 0.21 61.61 0.49ZM66.40 6.69C66.40 8.53 67.17 9.42 68.71 9.42C70.20 9.42 71.02 8.58 71.02 7.01C71.02 5.66 70.08 4.94 69.16 4.23L69.17 4.23C68.49 3.70 67.80 3.15 67.80 2.44C67.80 1.71 68.12 1.39 68.71 1.39C69.33 1.39 69.62 1.81 69.62 2.73L69.62 2.93C69.62 3.21 69.85 3.43 70.13 3.43L70.52 3.43C70.80 3.43 71.02 3.21 71.02 2.93L71.02 2.73C71.02 0.95 70.22-0.01 68.71-0.01C67.23-0.01 66.40 0.90 66.40 2.48C66.40 3.86 67.37 4.62 68.29 5.35L68.29 5.33C68.98 5.87 69.62 6.38 69.62 7.04C69.62 7.78 69.30 8.04 68.71 8.04C68.52 8.04 68.28 8.01 68.12 7.85C67.93 7.69 67.80 7.36 67.80 6.69L67.80 6.51C67.80 6.23 67.56 6.01 67.30 6.01L66.91 6.01C66.63 6.01 66.40 6.23 66.40 6.51Z"></path></g><defs data-v-423bf9ae=""><linearGradient data-v-423bf9ae="" gradientTransform="rotate(25)" id="c6817dbc-6e64-4755-95de-b060b6d48e9d" x1="0%" y1="0%" x2="100%" y2="0%"><stop data-v-423bf9ae="" offset="0%" style="stop-color: rgb(213, 108, 219); stop-opacity: 1;"></stop><stop data-v-423bf9ae="" offset="100%" style="stop-color: rgb(158, 108, 219); stop-opacity: 1;"></stop></linearGradient></defs><g data-v-423bf9ae="" id="534350db-65e5-4c3b-94c2-a4c0e10a1878" transform="matrix(1.1111021253797744,0,0,1.1111021253797744,169.9587077345236,0.4453648804580439)" stroke="none" fill="url(#c6817dbc-6e64-4755-95de-b060b6d48e9d)"><path d="M37.039 20.894h26.345l2.408-3.436c1.967-2.965 4.134-5.805 6.009-8.83.89-1.437 2.558-3.789 1.901-5.609-.469-1.3-1.669-1.743-2.955-1.969-.93-.163-5.684-1.364-7.603-.972-1.703.349-3.276 1.157-4.91 1.725-2.301.8-4.848 1.471-7.372 1.333-2.181-.119-4.659-.398-6.715-1.141-1.704-.617-3.35-1.525-5.153-1.834-1.557-.267-7.228.519-8.369.715-8.031 1.382-2.192 7.493 4.006 16.582l2.408 3.436zm58.042 48.181c-6.754-15.562-18.983-32.532-31.794-40.719h-26.58C23.899 36.545 11.672 53.516 4.92 69.075c-6.77 15.598 1.351 30.924 16.825 30.924h56.511c15.474 0 23.595-15.326 16.825-30.924zM52.47 83.203v6.316h-5.029v-5.948c-3.863-.122-7.726-1.226-9.935-2.698l1.657-5.765c2.392 1.411 5.826 2.698 9.567 2.698 3.863 0 6.5-1.901 6.5-4.844 0-2.76-2.147-4.539-6.685-6.194-6.44-2.331-10.61-5.274-10.61-10.978 0-5.274 3.679-9.321 9.873-10.425v-6.01h5.029v5.703c3.863.123 6.5 1.042 8.463 2.024l-1.655 5.641c-1.473-.675-4.171-2.085-8.341-2.085-4.292 0-5.825 2.208-5.825 4.294 0 2.514 2.208 3.923 7.419 6.009 6.869 2.576 9.936 5.888 9.936 11.345 0 5.215-3.618 9.814-10.364 10.917z"></path></g><!----></svg>