<?xml version="1.0" encoding="utf-8"?>
<!-- Generator: Adobe Illustrator 24.2.3, SVG Export Plug-In . SVG Version: 6.00 Build 0)  -->
<svg version="1.1" id="Layer_1" xmlns="http://www.w3.org/2000/svg" xmlns:xlink="http://www.w3.org/1999/xlink" x="0px" y="0px"
	 viewBox="0 0 600 300" style="enable-background:new 0 0 600 300;" xml:space="preserve">
<style type="text/css">
	.st0{fill:#0C3D33;}
	.st1{fill:url(#SVGID_1_);}
</style>
<g id="b5df691a-9f1f-4ae3-8f01-56ce93511642" transform="matrix(3.6661027455278434,0,0,3.6661027455278434,19.63338971998427,160.7228197346334)">
	<path class="st0" d="M34.96,14.26c2.18,0,3.14-1.35,3.14-4.06c0-1.28-0.31-2.34-0.8-3.02l0,0c0,0,0.8-1.08,0.8-3.03
		c0-2.7-0.96-4.05-3.14-4.05h-1.85c-0.37,0-0.67,0.33-0.67,0.75v12.64c0,0.42,0.29,0.76,0.67,0.76H34.96z M34.96,2.18
		c0.9,0,1.28,0.56,1.28,1.97s-0.37,1.98-1.28,1.98h-0.65V2.18H34.96z M34.96,8.2c0.9,0,1.28,0.57,1.28,1.99
		c0,1.41-0.37,1.98-1.28,1.98h-0.65V8.2H34.96z M39.39,10.39c0,2.22,0.82,3.84,3.06,3.84c2.15,0,3.05-1.48,3.05-3.84V0.83
		c0-0.42-0.29-0.75-0.67-0.75h-0.52c-0.36,0-0.65,0.33-0.65,0.75v9.55c0,1.01-0.27,1.77-1.21,1.77c-0.92,0-1.21-0.66-1.21-1.77V0.83
		c0-0.42-0.31-0.75-0.68-0.75h-0.52c-0.36,0-0.65,0.33-0.65,0.75V10.39z M46.71,10.13c0,2.76,1.02,4.09,3.07,4.09
		c1.98,0,3.07-1.26,3.07-3.61c0-2.03-1.25-3.11-2.47-4.17h0.01c-0.9-0.8-1.82-1.62-1.82-2.68c0-1.1,0.43-1.58,1.21-1.58
		c0.82,0,1.21,0.63,1.21,2.01v0.3c0,0.42,0.31,0.75,0.68,0.75h0.52c0.37,0,0.67-0.33,0.67-0.75v-0.3c0-2.67-1.06-4.11-3.07-4.11
		c-1.97,0-3.07,1.36-3.07,3.73c0,2.07,1.29,3.21,2.51,4.3V8.09c0.92,0.81,1.77,1.57,1.77,2.56c0,1.11-0.43,1.5-1.21,1.5
		c-0.25,0-0.57-0.04-0.78-0.28c-0.25-0.24-0.43-0.73-0.43-1.74V9.86c0-0.42-0.32-0.75-0.67-0.75h-0.52c-0.37,0-0.68,0.33-0.68,0.75
		V10.13z M53.49,1.42c0,0.42,0.29,0.76,0.66,0.76h1.52v11.29c0,0.42,0.29,0.75,0.66,0.75h0.51c0.37,0,0.67-0.33,0.67-0.75V2.18h1.53
		c0.37,0,0.67-0.34,0.67-0.76V0.83c0-0.42-0.29-0.75-0.67-0.75h-4.88c-0.37,0-0.66,0.33-0.66,0.75V1.42z M62.81,0.85
		c0-0.42-0.32-0.75-0.67-0.75h-0.52c-0.37,0-0.68,0.33-0.68,0.75v12.64c0,0.42,0.31,0.76,0.68,0.76h0.52c0.35,0,0.67-0.34,0.67-0.76
		V0.85z M69.57,14.26c0.37,0,0.68-0.34,0.68-0.76V0.85c0-0.42-0.31-0.75-0.68-0.75h-0.52c-0.37,0-0.67,0.33-0.67,0.75v6.93
		l-2.59-7.21c-0.07-0.24-0.37-0.46-0.61-0.46h-0.45c-0.35,0-0.66,0.33-0.66,0.75v12.64c0,0.42,0.32,0.76,0.66,0.76h0.55
		c0.36,0,0.67-0.34,0.67-0.76V6.56l2.59,7.23c0.08,0.22,0.39,0.46,0.61,0.46H69.57z M73.45,0.85c0-0.42-0.31-0.75-0.68-0.75h-0.52
		c-0.36,0-0.65,0.33-0.65,0.75V2.5c0,0.42,0.29,0.75,0.65,0.75h0.52c0.37,0,0.68-0.33,0.68-0.75V0.85z M80.69,14.26
		c2.18,0,3.15-1.35,3.15-4.06c0-1.28-0.32-2.34-0.8-3.02l0,0c0,0,0.8-1.08,0.8-3.03c0-2.7-0.97-4.05-3.15-4.05h-1.84
		c-0.37,0-0.68,0.33-0.68,0.75v12.64c0,0.42,0.31,0.76,0.68,0.76H80.69z M80.69,2.18c0.92,0,1.29,0.56,1.29,1.97
		s-0.37,1.98-1.29,1.98h-0.65V2.18H80.69z M80.69,8.2c0.92,0,1.29,0.57,1.29,1.99c0,1.41-0.37,1.98-1.29,1.98h-0.65V8.2H80.69z
		 M85.12,10.39c0,2.22,0.82,3.84,3.06,3.84c2.15,0,3.06-1.48,3.06-3.84V0.83c0-0.42-0.31-0.75-0.68-0.75h-0.52
		c-0.36,0-0.65,0.33-0.65,0.75v9.55c0,1.01-0.27,1.77-1.21,1.77c-0.92,0-1.21-0.66-1.21-1.77V0.83c0-0.42-0.29-0.75-0.67-0.75h-0.53
		c-0.35,0-0.65,0.33-0.65,0.75V10.39z M95.48,14.26c2.23,0,3.27-1.44,3.27-4.17V4.25c0-2.73-1.04-4.15-3.27-4.15h-1.9
		c-0.37,0-0.67,0.33-0.67,0.75v12.64c0,0.42,0.29,0.76,0.67,0.76H95.48z M95.48,2.18c0.98,0,1.4,0.66,1.4,2.07v5.83
		c0,1.41-0.41,2.09-1.4,2.09h-0.73V2.18H95.48z M103.9,7.15c-1.1,0-1.05,2.1,0,2.1h0.65v0.91c0,1.36-0.4,2.01-1.2,2.01
		c-0.82,0-1.21-0.65-1.21-2.01c0-0.55,0-2.65,0-5.98c0-0.97,0.17-1.47,0.43-1.72c0.21-0.24,0.52-0.27,0.78-0.27s0.56,0.03,0.78,0.27
		c0.23,0.22,0.41,0.73,0.41,1.72v0.29c0,0.42,0.29,0.76,0.67,0.76h0.55c0.35,0,0.65-0.35,0.65-0.76V4.18c0-2.67-1.01-4.08-3.06-4.08
		s-3.07,1.41-3.07,4.08v5.98c0,2.64,1.02,4.09,3.07,4.09s3.06-1.44,3.06-4.09V7.91c0-0.42-0.31-0.77-0.65-0.77H103.9z M108.42,0.1
		c-0.37,0-0.68,0.33-0.68,0.75v12.64c0,0.42,0.31,0.76,0.68,0.76h4.02c0.37,0,0.68-0.34,0.68-0.76v-0.57c0-0.42-0.31-0.75-0.68-0.75
		h-2.85V8.2h2.34c0.37,0,0.68-0.33,0.68-0.75V6.88c0-0.42-0.31-0.75-0.68-0.75h-2.34V2.18h2.85c0.37,0,0.68-0.34,0.68-0.76V0.85
		c0-0.42-0.31-0.75-0.68-0.75H108.42z M114.26,1.42c0,0.42,0.31,0.76,0.68,0.76h1.5v11.29c0,0.42,0.31,0.75,0.68,0.75h0.49
		c0.37,0,0.68-0.33,0.68-0.75V2.18h1.53c0.37,0,0.67-0.34,0.67-0.76V0.83c0-0.42-0.29-0.75-0.67-0.75h-4.88
		c-0.37,0-0.68,0.33-0.68,0.75V1.42z M120.63,10.13c0,2.76,1.02,4.09,3.07,4.09c1.98,0,3.07-1.26,3.07-3.61
		c0-2.03-1.25-3.11-2.47-4.17h0.01c-0.9-0.8-1.82-1.62-1.82-2.68c0-1.1,0.43-1.58,1.21-1.58c0.82,0,1.21,0.63,1.21,2.01v0.3
		c0,0.42,0.31,0.75,0.68,0.75h0.52c0.37,0,0.67-0.33,0.67-0.75v-0.3c0-2.67-1.06-4.11-3.07-4.11c-1.97,0-3.07,1.36-3.07,3.73
		c0,2.07,1.29,3.21,2.51,4.3V8.09c0.92,0.81,1.77,1.57,1.77,2.56c0,1.11-0.43,1.5-1.21,1.5c-0.25,0-0.57-0.04-0.78-0.28
		c-0.25-0.24-0.43-0.73-0.43-1.74V9.86c0-0.42-0.32-0.75-0.67-0.75h-0.52c-0.37,0-0.68,0.33-0.68,0.75V10.13z"/>
</g>
<g id="b5815026-4718-473f-bb24-9f44df239e8b" transform="matrix(0.5434076290327442,0,0,0.5434076290327442,122.82934349572082,88.3459422141762)">
	
		<linearGradient id="SVGID_1_" gradientUnits="userSpaceOnUse" x1="-227.1609" y1="839.1844" x2="-225.7699" y2="839.1844" gradientTransform="matrix(46.7733 22.9652 21.8108 -49.2491 -7412.8882 46519.207)">
		<stop  offset="0" style="stop-color:#30992E"/>
		<stop  offset="1" style="stop-color:#22E996"/>
	</linearGradient>
	<path class="st1" d="M329.96-34.59H365l3.2-5.15c2.62-4.45,5.5-8.71,7.99-13.24c1.18-2.16,3.4-5.68,2.53-8.41
		c-0.62-1.95-2.22-2.61-3.93-2.95c-1.24-0.24-7.56-2.05-10.11-1.46c-2.26,0.52-4.36,1.74-6.53,2.59c-3.06,1.2-6.45,2.21-9.8,2
		c-2.9-0.18-6.2-0.6-8.93-1.71c-2.27-0.93-4.46-2.29-6.85-2.75c-2.07-0.4-9.61,0.78-11.13,1.07c-10.68,2.07-2.92,11.24,5.33,24.87
		L329.96-34.59z M407.16,37.68c-8.98-23.34-25.25-48.8-42.29-61.08h-35.35c-17.03,12.28-33.3,37.74-42.28,61.08
		c-9,23.4,1.8,46.39,22.38,46.39h75.16C405.36,84.07,416.16,61.08,407.16,37.68z M350.48,58.87v9.47h-6.69v-8.92
		c-5.14-0.18-10.28-1.84-13.21-4.05l2.2-8.65c3.18,2.12,7.75,4.05,12.72,4.05c5.14,0,8.64-2.85,8.64-7.27
		c0-4.14-2.86-6.81-8.89-9.29c-8.57-3.5-14.11-7.91-14.11-16.47c0-7.91,4.89-13.98,13.13-15.64V-6.9h6.69v8.55
		c5.14,0.18,8.64,1.56,11.26,3.04l-2.2,8.46c-1.96-1.01-5.55-3.13-11.09-3.13c-5.71,0-7.75,3.31-7.75,6.44
		c0,3.77,2.94,5.88,9.87,9.01c9.14,3.86,13.21,8.83,13.21,17.02C364.27,50.32,359.46,57.22,350.48,58.87z"/>
</g>
<g id="bbb01675-3fee-45eb-a924-a061d39499a2" transform="matrix(0.4943968572819965,0,0,0.4943968572819965,52.153922205796256,203.53616830205485)">
	<path class="st0" d="M271.74,58.31c-0.56-0.62-1.36-0.99-2.39-1.15c0.43-0.12,0.8-0.3,1.13-0.53c0.33-0.22,0.64-0.48,0.85-0.79
		c0.23-0.32,0.41-0.66,0.53-1.01c0.11-0.36,0.19-0.74,0.19-1.14c0-0.58-0.12-1.14-0.28-1.59c-0.17-0.47-0.45-0.87-0.81-1.2
		c-0.35-0.32-0.8-0.57-1.36-0.74c-0.56-0.17-1.21-0.26-1.96-0.26h-3.78h-1.58v0.4c0,0.23,0.13,0.35,0.37,0.38h0.19
		c0.09,0,0.23,0.01,0.41,0.01c0.19,0,0.39,0.03,0.61,0.03v13.18c-0.23,0-0.43,0.01-0.61,0.01c-0.19,0-0.32,0.03-0.41,0.03h-0.19
		c-0.24,0.01-0.36,0.14-0.36,0.38v0.42h1.57h4.27c0.7,0,1.32-0.09,1.88-0.27c0.56-0.19,1.02-0.45,1.4-0.81
		c0.37-0.35,0.66-0.76,0.88-1.28c0.2-0.51,0.29-1.06,0.29-1.69C272.58,59.72,272.3,58.92,271.74,58.31z M264.81,50.75h2.83
		c1.17,0,2.05,0.27,2.61,0.78c0.56,0.53,0.84,1.26,0.84,2.26c0,0.38-0.05,0.78-0.19,1.14c-0.13,0.35-0.33,0.66-0.61,0.96
		c-0.28,0.3-0.64,0.53-1.06,0.69c-0.43,0.16-0.94,0.27-1.56,0.27h-2.86V50.75z M270.74,63.05c-0.6,0.57-1.48,0.84-2.63,0.84h-3.3
		v-6.25h3.32c0.56,0,1.04,0.06,1.46,0.21s0.8,0.36,1.1,0.62c0.29,0.27,0.52,0.57,0.69,0.94c0.15,0.38,0.24,0.81,0.24,1.27
		C271.63,61.71,271.33,62.49,270.74,63.05z M292.53,63.96h-0.09h-0.16c-0.05,0-0.15-0.03-0.28-0.03c-0.12,0-0.28-0.01-0.44-0.01
		V54.3l-0.89,0.01h-1.34v0.4c0,0.23,0.13,0.35,0.37,0.38h0.09c0.04,0,0.09,0.01,0.15,0.01h0.28c0.13,0,0.28,0.03,0.45,0.03v7.01
		c-0.41,0.61-0.9,1.1-1.42,1.45c-0.52,0.33-1.08,0.53-1.68,0.53c-0.81,0-1.44-0.3-1.82-0.84c-0.39-0.57-0.6-1.32-0.6-2.31V54.3
		l-0.89,0.01h-1.34v0.4c0,0.23,0.13,0.35,0.37,0.38h0.09c0.04,0,0.09,0.01,0.15,0.01h0.28c0.13,0,0.28,0.03,0.45,0.03v5.83
		c0,0.6,0.08,1.15,0.2,1.64c0.13,0.48,0.32,0.9,0.59,1.24c0.25,0.33,0.56,0.6,0.94,0.8c0.4,0.18,0.84,0.27,1.36,0.27
		c0.69,0,1.33-0.19,1.89-0.54c0.56-0.36,1.06-0.84,1.49-1.45l0.07,1.56c0,0.18,0.12,0.27,0.28,0.27h0.49h1.34v-0.42
		C292.9,64.1,292.76,63.98,292.53,63.96z M309.96,60.62c-0.15-0.3-0.33-0.53-0.57-0.74s-0.52-0.38-0.82-0.51
		c-0.29-0.12-0.63-0.27-0.94-0.38c-0.32-0.1-0.64-0.22-0.94-0.33s-0.59-0.26-0.82-0.4c-0.24-0.15-0.43-0.33-0.57-0.54
		c-0.16-0.21-0.23-0.48-0.23-0.83c0-0.27,0.04-0.53,0.15-0.75c0.11-0.24,0.27-0.47,0.47-0.66c0.19-0.18,0.43-0.31,0.7-0.42
		s0.59-0.17,0.92-0.17c0.48,0,0.97,0.09,1.46,0.27c0.03,0.26,0.04,0.51,0.07,0.74c0.01,0.24,0.01,0.4,0.03,0.52
		c0.03,0.14,0.03,0.24,0.03,0.26c0.01,0.35,0.15,0.51,0.41,0.51h0.44v-2.5c-0.97-0.38-1.78-0.54-2.46-0.54
		c-0.47,0-0.89,0.08-1.26,0.22c-0.37,0.15-0.7,0.36-0.97,0.62c-0.25,0.26-0.47,0.57-0.61,0.9c-0.15,0.33-0.2,0.69-0.2,1.07
		c0,0.45,0.07,0.81,0.23,1.1c0.15,0.3,0.33,0.52,0.57,0.73c0.24,0.21,0.51,0.38,0.82,0.51c0.29,0.12,0.61,0.25,0.94,0.36
		c0.32,0.1,0.64,0.23,0.94,0.33c0.31,0.1,0.59,0.26,0.82,0.42c0.24,0.17,0.45,0.36,0.6,0.59c0.15,0.24,0.23,0.51,0.23,0.87
		c0,0.31-0.07,0.6-0.16,0.9c-0.11,0.28-0.25,0.53-0.47,0.74c-0.2,0.21-0.44,0.38-0.74,0.49c-0.29,0.14-0.63,0.19-1.02,0.19
		c-0.7,0-1.3-0.1-1.8-0.33c-0.03-0.28-0.04-0.53-0.07-0.76c-0.01-0.22-0.01-0.42-0.03-0.54c-0.03-0.13-0.03-0.24-0.03-0.26
		c-0.01-0.33-0.15-0.51-0.41-0.51h-0.44v2.55c0.89,0.38,1.81,0.58,2.74,0.58c0.52,0,0.96-0.09,1.37-0.25s0.74-0.39,1.02-0.69
		c0.28-0.3,0.49-0.61,0.64-1c0.15-0.41,0.23-0.83,0.23-1.29C310.21,61.26,310.12,60.92,309.96,60.62z M324.11,64.92
		c0.4,0,0.77-0.11,1.14-0.27c0.35-0.17,0.65-0.41,0.89-0.69l-0.24-0.47c-0.05-0.06-0.09-0.09-0.15-0.09c-0.04,0-0.12,0.03-0.19,0.1
		c-0.08,0.09-0.17,0.15-0.28,0.24c-0.12,0.07-0.27,0.17-0.44,0.24c-0.16,0.09-0.33,0.11-0.56,0.11c-0.19,0-0.37-0.03-0.52-0.11
		c-0.15-0.06-0.28-0.17-0.39-0.28c-0.12-0.13-0.21-0.3-0.28-0.51c-0.08-0.21-0.09-0.44-0.09-0.74v-7.08h2.93v-0.75h-2.93v-3.99
		h-0.43c-0.08,0-0.12,0.04-0.16,0.09c-0.03,0.03-0.07,0.1-0.07,0.17l-0.23,3.73l-1.58,0.12v0.39c0,0.08,0.01,0.12,0.05,0.17
		c0.04,0.05,0.12,0.08,0.19,0.08h1.33v7.14c0,0.83,0.16,1.41,0.52,1.81C323,64.73,323.49,64.92,324.11,64.92z M338.3,51.36
		c0.08,0.08,0.17,0.14,0.27,0.18c0.09,0.05,0.2,0.09,0.32,0.09c0.11,0,0.21-0.04,0.31-0.09c0.09-0.04,0.19-0.1,0.27-0.18
		c0.08-0.09,0.15-0.19,0.19-0.3c0.04-0.1,0.08-0.22,0.08-0.36c0-0.12-0.04-0.22-0.08-0.36c-0.04-0.1-0.11-0.21-0.19-0.28
		c-0.08-0.09-0.17-0.17-0.27-0.21c-0.09-0.04-0.2-0.06-0.31-0.06c-0.12,0-0.23,0.01-0.32,0.06c-0.09,0.05-0.19,0.12-0.27,0.21
		c-0.07,0.08-0.13,0.18-0.16,0.28c-0.04,0.1-0.08,0.24-0.08,0.36c0,0.14,0.04,0.26,0.08,0.36C338.17,51.17,338.24,51.27,338.3,51.36
		z M340.3,63.96h-0.09h-0.15c-0.05,0-0.15-0.03-0.28-0.03s-0.28-0.01-0.45-0.01V54.3h-0.89h-1.34v0.42c0,0.23,0.13,0.35,0.37,0.38
		h0.09c0.04,0,0.09,0.01,0.15,0.01h0.28c0.13,0,0.28,0.03,0.45,0.03v8.78c-0.2,0-0.39,0.04-0.55,0.04h-0.31h-0.12
		c-0.24,0.01-0.37,0.14-0.37,0.38v0.42h1.34h0.89h1.34v-0.42C340.67,64.1,340.54,63.98,340.3,63.96z M361.29,63.96h-0.09h-0.15
		c-0.07,0-0.16-0.03-0.28-0.03c-0.13,0-0.28-0.01-0.45-0.01v-5.83c0-0.62-0.08-1.15-0.2-1.65c-0.13-0.48-0.32-0.9-0.59-1.23
		c-0.25-0.35-0.57-0.58-0.97-0.78c-0.39-0.19-0.84-0.27-1.33-0.27c-0.69,0-1.33,0.18-1.89,0.54c-0.56,0.38-1.04,0.84-1.46,1.45
		l-0.08-1.57c-0.01-0.17-0.11-0.26-0.28-0.26h-0.48h-1.34v0.4c0,0.23,0.11,0.35,0.35,0.38h0.12c0.04,0,0.07,0.01,0.13,0.01h0.28
		c0.12,0,0.29,0.03,0.47,0.03v8.78c-0.23,0-0.41,0.04-0.56,0.04h-0.31h-0.13c-0.24,0.01-0.35,0.14-0.35,0.38v0.42h1.34h0.86h1.34
		v-0.42c0-0.24-0.11-0.36-0.35-0.38h-0.12h-0.13c-0.05,0-0.15-0.03-0.28-0.03c-0.12,0-0.29-0.01-0.47-0.01v-6.99
		c0.41-0.62,0.88-1.1,1.4-1.46c0.53-0.36,1.09-0.52,1.7-0.52c0.81,0,1.44,0.27,1.82,0.82s0.6,1.32,0.6,2.31v6.67h0.89h1.34v-0.42
		C361.66,64.1,361.53,63.98,361.29,63.96z M373.24,49.89h-0.78v3.06l0.09,1.62c0.01,0.12,0.04,0.21,0.09,0.27
		c0.05,0.06,0.11,0.11,0.2,0.11c0.12,0,0.19-0.05,0.23-0.11c0.04-0.06,0.08-0.15,0.09-0.27l0.08-1.62V49.89z M406.21,55.47
		c-0.64-0.88-1.53-1.35-2.66-1.35c-0.68,0-1.29,0.19-1.82,0.56c-0.55,0.36-1.01,0.84-1.42,1.44l-0.01-6.64h-0.88h-1.34v0.42
		c0,0.22,0.12,0.35,0.36,0.38h0.11c0.04,0,0.08,0.01,0.13,0.01h0.28c0.13,0,0.29,0.03,0.47,0.03v13.45v0.53
		c1.64,0.4,2.87,0.58,3.71,0.58c0.65,0,1.22-0.15,1.73-0.42c0.51-0.27,0.9-0.65,1.26-1.13c0.36-0.49,0.6-1.08,0.78-1.72
		c0.19-0.66,0.25-1.4,0.25-2.15C407.16,57.68,406.85,56.36,406.21,55.47z M406.04,61.35c-0.15,0.57-0.35,1.07-0.63,1.47
		c-0.28,0.42-0.61,0.72-1.02,0.94c-0.41,0.22-0.89,0.33-1.44,0.33c-0.48,0-1.38-0.14-2.66-0.44v-6.7c0.39-0.63,0.84-1.13,1.34-1.49
		c0.49-0.36,1.04-0.54,1.65-0.54c0.96,0,1.7,0.38,2.19,1.11c0.51,0.74,0.77,1.86,0.77,3.42C406.25,60.15,406.2,60.78,406.04,61.35z
		 M425.54,63.96h-0.13h-0.29c-0.13,0-0.28-0.03-0.43-0.03v-5.99c0-0.58-0.05-1.09-0.19-1.58c-0.13-0.48-0.32-0.88-0.56-1.21
		c-0.24-0.33-0.56-0.58-0.93-0.75c-0.37-0.19-0.8-0.28-1.3-0.28c-0.68,0-1.26,0.15-1.81,0.42c-0.55,0.28-1.04,0.71-1.53,1.24
		l0.15,0.32c0.07,0.12,0.16,0.19,0.28,0.19c0.09,0,0.23-0.09,0.36-0.24c0.13-0.15,0.32-0.27,0.55-0.43
		c0.21-0.17,0.47-0.32,0.77-0.47c0.32-0.15,0.69-0.21,1.14-0.21c0.72,0,1.28,0.25,1.65,0.78c0.37,0.52,0.55,1.26,0.55,2.22v1.1
		c-1.04,0.01-1.94,0.12-2.69,0.3c-0.74,0.17-1.36,0.39-1.84,0.66c-0.49,0.28-0.82,0.62-1.05,0.99c-0.21,0.38-0.33,0.78-0.33,1.21
		c0,0.5,0.08,0.92,0.21,1.25c0.15,0.33,0.33,0.61,0.56,0.83c0.21,0.21,0.49,0.38,0.8,0.48c0.29,0.11,0.6,0.17,0.9,0.17
		c0.37,0,0.73-0.04,1.05-0.12c0.32-0.09,0.6-0.21,0.88-0.36c0.28-0.15,0.53-0.34,0.8-0.57c0.24-0.22,0.48-0.48,0.74-0.75l0.13,1.34
		c0.03,0.19,0.16,0.3,0.35,0.3h0.03h0.33h1.22v-0.42C425.91,64.1,425.78,63.98,425.54,63.96z M423.81,62.42
		c-0.23,0.25-0.43,0.51-0.65,0.72c-0.23,0.21-0.47,0.41-0.73,0.57c-0.25,0.17-0.53,0.27-0.84,0.36c-0.29,0.08-0.63,0.12-0.98,0.12
		c-0.24,0-0.48-0.01-0.7-0.1c-0.23-0.09-0.41-0.2-0.57-0.36c-0.17-0.16-0.32-0.37-0.41-0.63c-0.12-0.26-0.15-0.54-0.15-0.9
		c0-0.38,0.09-0.72,0.29-1.01c0.2-0.3,0.51-0.52,0.92-0.73c0.4-0.21,0.93-0.38,1.56-0.51c0.64-0.12,1.4-0.21,2.27-0.22V62.42z
		 M445.73,64.34c0-0.24-0.12-0.36-0.36-0.38h-0.09h-0.13c-0.05,0-0.15-0.03-0.25-0.03h-0.41V49.47h-0.88h-1.34v0.42
		c0,0.22,0.13,0.35,0.37,0.38h0.09c0.04,0,0.08,0.01,0.13,0.01h0.31c0.12,0,0.28,0.03,0.44,0.03v5.35
		c-0.33-0.51-0.72-0.88-1.18-1.14c-0.47-0.27-1.01-0.4-1.65-0.4c-0.65,0-1.22,0.15-1.73,0.42c-0.51,0.28-0.9,0.67-1.26,1.16
		c-0.36,0.49-0.6,1.08-0.78,1.72c-0.19,0.66-0.25,1.36-0.25,2.13c0,1.78,0.31,3.12,0.94,4.01c0.64,0.88,1.53,1.32,2.66,1.32
		c0.69,0,1.3-0.17,1.86-0.54c0.56-0.38,1.02-0.88,1.44-1.51l0.09,1.67c0.01,0.18,0.11,0.27,0.27,0.27h0.48h1.25v-0.32V64.34z
		 M443.6,62.04c-0.39,0.63-0.84,1.14-1.34,1.5c-0.49,0.34-1.04,0.54-1.65,0.54c-0.96,0-1.7-0.36-2.19-1.1
		c-0.51-0.74-0.77-1.89-0.77-3.44c0-0.7,0.05-1.31,0.21-1.87c0.15-0.57,0.35-1.07,0.63-1.47c0.28-0.41,0.61-0.74,1.02-0.96
		c0.41-0.24,0.89-0.35,1.44-0.35c0.55,0,1.04,0.13,1.48,0.38c0.43,0.26,0.84,0.67,1.18,1.26V62.04z M478.1,55.47
		c-0.63-0.88-1.52-1.35-2.66-1.35c-0.67,0-1.28,0.19-1.82,0.56c-0.55,0.36-1.01,0.84-1.41,1.44l-0.03-6.64h-0.88h-1.33v0.42
		c0,0.22,0.11,0.35,0.35,0.38h0.12c0.03,0,0.07,0.01,0.12,0.01h0.28c0.13,0,0.31,0.03,0.47,0.03v13.45v0.53
		c1.65,0.4,2.87,0.58,3.71,0.58c0.65,0,1.22-0.15,1.73-0.42c0.51-0.27,0.92-0.65,1.26-1.13c0.36-0.49,0.6-1.08,0.78-1.72
		c0.19-0.66,0.27-1.4,0.27-2.15C479.06,57.68,478.74,56.36,478.1,55.47z M477.94,61.35c-0.15,0.57-0.36,1.07-0.64,1.47
		c-0.28,0.42-0.61,0.72-1.02,0.94c-0.41,0.22-0.89,0.33-1.44,0.33c-0.48,0-1.37-0.14-2.66-0.44v-6.7c0.4-0.63,0.84-1.13,1.34-1.49
		s1.04-0.54,1.66-0.54c0.94,0,1.69,0.38,2.19,1.11c0.51,0.74,0.76,1.86,0.76,3.42C478.14,60.15,478.09,60.78,477.94,61.35z
		 M499.03,63.96h-0.09h-0.15c-0.05,0-0.15-0.03-0.28-0.03c-0.13,0-0.28-0.01-0.45-0.01V54.3l-0.89,0.01h-1.34v0.4
		c0,0.23,0.13,0.35,0.37,0.38h0.09c0.04,0,0.09,0.01,0.15,0.01h0.28c0.13,0,0.28,0.03,0.45,0.03v7.01c-0.41,0.61-0.89,1.1-1.41,1.45
		c-0.53,0.33-1.09,0.53-1.68,0.53c-0.82,0-1.44-0.3-1.84-0.84c-0.39-0.57-0.59-1.32-0.59-2.31V54.3l-0.9,0.01h-1.33v0.4
		c0,0.23,0.12,0.35,0.37,0.38h0.09c0.03,0,0.09,0.01,0.15,0.01h0.28c0.13,0,0.28,0.03,0.44,0.03v5.83c0,0.6,0.08,1.15,0.21,1.64
		c0.13,0.48,0.32,0.9,0.57,1.24c0.27,0.33,0.56,0.6,0.96,0.8c0.39,0.18,0.84,0.27,1.36,0.27c0.69,0,1.32-0.19,1.88-0.54
		c0.56-0.36,1.06-0.84,1.49-1.45l0.08,1.56c0,0.18,0.11,0.27,0.28,0.27h0.48h1.34v-0.42C499.41,64.1,499.27,63.98,499.03,63.96z
		 M519.2,64.34c0-0.24-0.11-0.36-0.35-0.38h-0.09h-0.13c-0.05,0-0.15-0.03-0.27-0.03h-0.41V49.47h-0.86h-1.34v0.42
		c0,0.22,0.13,0.35,0.37,0.38h0.09c0.04,0,0.07,0.01,0.13,0.01h0.29c0.13,0,0.28,0.03,0.45,0.03v5.35c-0.35-0.51-0.73-0.88-1.2-1.14
		c-0.47-0.27-1.01-0.4-1.64-0.4c-0.65,0-1.24,0.15-1.73,0.42c-0.51,0.28-0.92,0.67-1.28,1.16c-0.35,0.49-0.59,1.08-0.77,1.72
		c-0.19,0.66-0.27,1.36-0.27,2.13c0,1.78,0.32,3.12,0.94,4.01c0.64,0.88,1.53,1.32,2.67,1.32c0.68,0,1.3-0.17,1.86-0.54
		s1.02-0.88,1.42-1.51l0.09,1.67c0.03,0.18,0.12,0.27,0.27,0.27h0.48h1.25v-0.32V64.34z M517.08,62.04c-0.4,0.63-0.84,1.14-1.34,1.5
		c-0.51,0.34-1.05,0.54-1.66,0.54c-0.94,0-1.69-0.36-2.19-1.1c-0.51-0.74-0.76-1.89-0.76-3.44c0-0.7,0.05-1.31,0.2-1.87
		c0.15-0.57,0.36-1.07,0.64-1.47c0.28-0.41,0.61-0.74,1.02-0.96c0.4-0.24,0.89-0.35,1.42-0.35c0.55,0,1.05,0.13,1.48,0.38
		c0.43,0.26,0.84,0.67,1.2,1.26V62.04z M533.67,54.12c-0.51,0-0.94,0.09-1.36,0.25c-0.41,0.17-0.74,0.38-1.05,0.68
		c-0.29,0.3-0.52,0.63-0.67,1.05c-0.15,0.42-0.24,0.88-0.24,1.38c0,0.63,0.13,1.19,0.37,1.67c0.24,0.48,0.57,0.85,1.02,1.15
		c-0.19,0.1-0.33,0.23-0.49,0.38c-0.15,0.15-0.25,0.27-0.35,0.45c-0.09,0.17-0.17,0.31-0.23,0.48c-0.05,0.17-0.08,0.31-0.08,0.47
		c0,0.39,0.08,0.69,0.27,0.92c0.19,0.24,0.43,0.38,0.74,0.51c-0.56,0.21-1.02,0.52-1.34,0.91c-0.32,0.4-0.48,0.89-0.48,1.44
		c0,0.38,0.09,0.75,0.25,1.08c0.17,0.35,0.41,0.63,0.74,0.88c0.35,0.26,0.74,0.47,1.24,0.62c0.48,0.15,1.06,0.22,1.72,0.22
		c0.63,0,1.22-0.11,1.74-0.29c0.52-0.19,0.93-0.42,1.3-0.74c0.37-0.31,0.65-0.67,0.84-1.08c0.19-0.39,0.28-0.8,0.28-1.23
		c0-0.46-0.07-0.84-0.25-1.14c-0.19-0.3-0.45-0.48-0.74-0.64c-0.31-0.18-0.68-0.29-1.06-0.35c-0.4-0.06-0.78-0.1-1.2-0.12
		c-0.41-0.03-0.81-0.06-1.21-0.09c-0.39-0.01-0.74-0.05-1.04-0.12c-0.31-0.09-0.56-0.2-0.74-0.36c-0.19-0.16-0.28-0.4-0.28-0.69
		c0-0.21,0.07-0.45,0.23-0.67c0.15-0.22,0.35-0.42,0.61-0.58c0.43,0.18,0.9,0.25,1.45,0.25c0.48,0,0.93-0.07,1.34-0.24
		c0.41-0.17,0.74-0.38,1.04-0.67c0.31-0.28,0.51-0.63,0.68-1.05c0.16-0.42,0.24-0.85,0.24-1.37c0-0.38-0.04-0.74-0.13-1.06
		c-0.09-0.33-0.24-0.63-0.41-0.9l1.42-0.13c0.16-0.01,0.25-0.1,0.25-0.27v-0.36h-2.38c-0.28-0.21-0.6-0.34-0.93-0.45
		C534.45,54.2,534.08,54.12,533.67,54.12z M537.11,65.46c0,0.36-0.09,0.67-0.27,0.97c-0.16,0.29-0.4,0.58-0.7,0.79
		c-0.29,0.21-0.65,0.38-1.06,0.51c-0.4,0.12-0.85,0.17-1.32,0.17c-0.51,0-0.94-0.06-1.34-0.17c-0.39-0.11-0.74-0.29-1-0.46
		c-0.27-0.19-0.47-0.42-0.63-0.68c-0.15-0.25-0.2-0.54-0.2-0.86c0-0.25,0.05-0.46,0.13-0.67c0.07-0.21,0.19-0.4,0.33-0.57
		s0.29-0.33,0.51-0.47c0.2-0.12,0.43-0.25,0.67-0.36c0.32,0.08,0.65,0.1,1.02,0.13c0.37,0.01,0.7,0.05,1.08,0.06
		s0.72,0.05,1.05,0.09c0.33,0.03,0.63,0.14,0.89,0.24c0.27,0.11,0.45,0.26,0.6,0.47S537.11,65.13,537.11,65.46z M533.67,60.14
		c-0.39,0-0.73-0.06-1.04-0.19c-0.32-0.12-0.59-0.31-0.81-0.54c-0.21-0.24-0.37-0.51-0.48-0.83s-0.17-0.67-0.17-1.06
		c0-0.41,0.07-0.77,0.17-1.1s0.27-0.58,0.48-0.83c0.23-0.22,0.49-0.42,0.81-0.54c0.31-0.12,0.65-0.2,1.04-0.2s0.74,0.08,1.04,0.2
		c0.31,0.12,0.56,0.31,0.78,0.54c0.23,0.24,0.4,0.5,0.51,0.83c0.11,0.33,0.17,0.67,0.17,1.06c0,0.41-0.07,0.78-0.17,1.1
		c-0.11,0.31-0.28,0.58-0.48,0.83c-0.21,0.22-0.47,0.42-0.78,0.54C534.41,60.08,534.05,60.14,533.67,60.14z M553.05,54.12
		c-0.65,0-1.24,0.15-1.77,0.4c-0.52,0.26-0.94,0.61-1.3,1.06c-0.35,0.47-0.63,1.02-0.81,1.65c-0.19,0.63-0.31,1.32-0.31,2.07
		c0,0.88,0.12,1.68,0.32,2.37c0.21,0.7,0.49,1.26,0.86,1.75c0.37,0.48,0.81,0.84,1.33,1.08c0.53,0.25,1.1,0.36,1.74,0.36
		c0.35,0,0.7-0.01,1.04-0.11c0.33-0.07,0.66-0.18,0.97-0.31c0.29-0.12,0.57-0.27,0.81-0.47c0.25-0.18,0.45-0.37,0.6-0.58l-0.24-0.33
		c-0.04-0.06-0.11-0.1-0.19-0.1c-0.05,0-0.17,0.04-0.29,0.16c-0.13,0.12-0.32,0.26-0.56,0.41c-0.23,0.13-0.53,0.24-0.86,0.38
		c-0.33,0.12-0.74,0.18-1.21,0.18c-0.52,0-0.98-0.11-1.41-0.32s-0.78-0.49-1.08-0.9c-0.31-0.39-0.53-0.9-0.69-1.48
		c-0.17-0.59-0.24-1.31-0.24-2.08v-0.18h6.68c0.09,0,0.15-0.03,0.19-0.09c0.04-0.06,0.08-0.17,0.08-0.31c0-0.74-0.09-1.38-0.28-1.95
		s-0.43-1.08-0.77-1.45c-0.31-0.38-0.7-0.68-1.14-0.89C554.06,54.23,553.58,54.12,553.05,54.12z M553.07,54.89
		c0.43,0,0.8,0.08,1.16,0.25c0.35,0.17,0.65,0.39,0.89,0.71s0.44,0.67,0.57,1.11c0.13,0.45,0.21,0.94,0.21,1.51h-6.12
		c0.07-0.54,0.17-1.05,0.35-1.49c0.16-0.45,0.39-0.83,0.66-1.14s0.61-0.54,0.98-0.71C552.15,54.96,552.58,54.89,553.07,54.89z
		 M570.59,64.92c0.4,0,0.77-0.11,1.14-0.27c0.35-0.17,0.65-0.41,0.89-0.69l-0.24-0.47c-0.07-0.06-0.09-0.09-0.16-0.09
		c-0.03,0-0.11,0.03-0.19,0.1c-0.07,0.09-0.16,0.15-0.28,0.24c-0.11,0.07-0.25,0.17-0.43,0.24c-0.16,0.09-0.33,0.11-0.56,0.11
		c-0.19,0-0.37-0.03-0.52-0.11c-0.15-0.06-0.28-0.17-0.39-0.28c-0.12-0.13-0.21-0.3-0.28-0.51c-0.08-0.21-0.09-0.44-0.09-0.74v-7.08
		h2.91v-0.75h-2.91v-3.99h-0.44c-0.07,0-0.11,0.04-0.15,0.09c-0.04,0.03-0.07,0.1-0.07,0.17l-0.23,3.73l-1.58,0.12v0.39
		c0,0.08,0.01,0.12,0.05,0.17c0.04,0.05,0.11,0.08,0.19,0.08h1.32v7.14c0,0.83,0.17,1.41,0.53,1.81
		C569.47,64.73,569.96,64.92,570.59,64.92z M589.62,60.62c-0.15-0.3-0.33-0.53-0.57-0.74c-0.25-0.21-0.53-0.38-0.82-0.51
		c-0.29-0.12-0.64-0.27-0.94-0.38c-0.32-0.1-0.64-0.22-0.96-0.33c-0.29-0.1-0.57-0.26-0.81-0.4c-0.25-0.15-0.44-0.33-0.59-0.54
		s-0.23-0.48-0.23-0.83c0-0.27,0.04-0.53,0.16-0.75c0.11-0.24,0.25-0.47,0.47-0.66c0.19-0.18,0.43-0.31,0.7-0.42s0.57-0.17,0.9-0.17
		c0.49,0,0.97,0.09,1.48,0.27c0.01,0.26,0.04,0.51,0.05,0.74c0.03,0.24,0.03,0.4,0.04,0.52c0.01,0.14,0.01,0.24,0.01,0.26
		c0.03,0.35,0.16,0.51,0.41,0.51h0.45v-2.5c-0.97-0.38-1.8-0.54-2.46-0.54c-0.47,0-0.89,0.08-1.26,0.22
		c-0.37,0.15-0.7,0.36-0.97,0.62c-0.27,0.26-0.47,0.57-0.61,0.9c-0.15,0.33-0.21,0.69-0.21,1.07c0,0.45,0.08,0.81,0.23,1.1
		c0.15,0.3,0.33,0.52,0.59,0.73c0.24,0.21,0.49,0.38,0.81,0.51c0.31,0.12,0.61,0.25,0.96,0.36c0.31,0.1,0.63,0.23,0.94,0.33
		c0.29,0.1,0.57,0.26,0.82,0.42c0.24,0.17,0.44,0.36,0.59,0.59c0.16,0.24,0.23,0.51,0.23,0.87c0,0.31-0.05,0.6-0.15,0.9
		c-0.11,0.28-0.27,0.53-0.47,0.74c-0.2,0.21-0.45,0.38-0.74,0.49c-0.29,0.14-0.64,0.19-1.02,0.19c-0.7,0-1.3-0.1-1.81-0.33
		c-0.01-0.28-0.04-0.53-0.05-0.76c-0.01-0.22-0.01-0.42-0.04-0.54c-0.01-0.13-0.01-0.24-0.01-0.26c-0.03-0.33-0.15-0.51-0.41-0.51
		h-0.45v2.55c0.9,0.38,1.81,0.58,2.74,0.58c0.52,0,0.97-0.09,1.38-0.25s0.74-0.39,1.02-0.69c0.28-0.3,0.48-0.61,0.63-1
		c0.16-0.41,0.23-0.83,0.23-1.29C589.86,61.26,589.77,60.92,589.62,60.62z M620.68,60.62c-0.15-0.3-0.33-0.53-0.57-0.74
		c-0.24-0.21-0.52-0.38-0.82-0.51c-0.29-0.12-0.63-0.27-0.94-0.38c-0.32-0.1-0.64-0.22-0.96-0.33c-0.29-0.1-0.57-0.26-0.81-0.4
		c-0.24-0.15-0.43-0.33-0.59-0.54c-0.15-0.21-0.21-0.48-0.21-0.83c0-0.27,0.03-0.53,0.15-0.75c0.11-0.24,0.25-0.47,0.47-0.66
		c0.19-0.18,0.43-0.31,0.7-0.42s0.57-0.17,0.92-0.17c0.48,0,0.96,0.09,1.46,0.27c0.03,0.26,0.04,0.51,0.05,0.74
		c0.03,0.24,0.03,0.4,0.04,0.52c0.03,0.14,0.03,0.24,0.03,0.26c0.01,0.35,0.15,0.51,0.4,0.51h0.45v-2.5
		c-0.97-0.38-1.78-0.54-2.46-0.54c-0.47,0-0.89,0.08-1.26,0.22c-0.37,0.15-0.7,0.36-0.97,0.62c-0.25,0.26-0.47,0.57-0.61,0.9
		c-0.15,0.33-0.2,0.69-0.2,1.07c0,0.45,0.07,0.81,0.21,1.1c0.16,0.3,0.35,0.52,0.59,0.73c0.24,0.21,0.51,0.38,0.81,0.51
		c0.31,0.12,0.63,0.25,0.96,0.36c0.32,0.1,0.63,0.23,0.94,0.33c0.31,0.1,0.59,0.26,0.82,0.42c0.24,0.17,0.44,0.36,0.6,0.59
		c0.15,0.24,0.21,0.51,0.21,0.87c0,0.31-0.05,0.6-0.15,0.9c-0.11,0.28-0.25,0.53-0.47,0.74c-0.2,0.21-0.44,0.38-0.74,0.49
		c-0.29,0.14-0.63,0.19-1.02,0.19c-0.7,0-1.3-0.1-1.81-0.33c-0.01-0.28-0.03-0.53-0.05-0.76c-0.01-0.22-0.01-0.42-0.04-0.54
		c-0.01-0.13-0.01-0.24-0.01-0.26c-0.01-0.33-0.15-0.51-0.41-0.51h-0.44v2.55c0.89,0.38,1.8,0.58,2.73,0.58
		c0.53,0,0.97-0.09,1.38-0.25s0.74-0.39,1.02-0.69c0.28-0.3,0.48-0.61,0.64-1c0.15-0.41,0.21-0.83,0.21-1.29
		C620.92,61.26,620.82,60.92,620.68,60.62z M633.1,51.36c0.08,0.08,0.17,0.14,0.27,0.18c0.09,0.05,0.2,0.09,0.31,0.09
		c0.12,0,0.23-0.04,0.32-0.09c0.09-0.04,0.19-0.1,0.27-0.18c0.07-0.09,0.15-0.19,0.19-0.3c0.04-0.1,0.07-0.22,0.07-0.36
		c0-0.12-0.03-0.22-0.07-0.36c-0.04-0.1-0.12-0.21-0.19-0.28c-0.08-0.09-0.17-0.17-0.27-0.21c-0.09-0.04-0.2-0.06-0.32-0.06
		c-0.11,0-0.21,0.01-0.31,0.06c-0.09,0.05-0.19,0.12-0.27,0.21c-0.08,0.08-0.13,0.18-0.17,0.28c-0.03,0.1-0.07,0.24-0.07,0.36
		c0,0.14,0.04,0.26,0.07,0.36C632.97,51.17,633.02,51.27,633.1,51.36z M635.09,63.96H635h-0.15c-0.07,0-0.16-0.03-0.28-0.03
		c-0.13,0-0.28-0.01-0.45-0.01V54.3h-0.89h-1.34v0.42c0,0.23,0.13,0.35,0.37,0.38h0.09c0.04,0,0.09,0.01,0.15,0.01h0.28
		c0.13,0,0.28,0.03,0.45,0.03v8.78c-0.21,0-0.4,0.04-0.55,0.04h-0.32h-0.11c-0.24,0.01-0.37,0.14-0.37,0.38v0.42h1.34h0.89h1.34
		v-0.42C635.47,64.1,635.33,63.98,635.09,63.96z M656.08,63.96h-0.09h-0.16c-0.05,0-0.15-0.03-0.28-0.03
		c-0.12,0-0.28-0.01-0.44-0.01v-5.83c0-0.62-0.08-1.15-0.21-1.65c-0.12-0.48-0.31-0.9-0.57-1.23c-0.27-0.35-0.57-0.58-0.97-0.78
		c-0.39-0.19-0.84-0.27-1.34-0.27c-0.68,0-1.32,0.18-1.88,0.54c-0.56,0.38-1.04,0.84-1.48,1.45l-0.07-1.57
		c-0.03-0.17-0.12-0.26-0.28-0.26h-0.49h-1.33v0.4c0,0.23,0.11,0.35,0.35,0.38h0.12c0.03,0,0.07,0.01,0.12,0.01h0.28
		c0.13,0,0.31,0.03,0.47,0.03v8.78c-0.21,0-0.4,0.04-0.56,0.04h-0.29h-0.13c-0.24,0.01-0.35,0.14-0.35,0.38v0.42h1.33h0.88h1.34
		v-0.42c0-0.24-0.11-0.36-0.36-0.38h-0.11h-0.13c-0.05,0-0.15-0.03-0.28-0.03s-0.29-0.01-0.47-0.01v-6.99
		c0.41-0.62,0.88-1.1,1.4-1.46c0.52-0.36,1.08-0.52,1.7-0.52c0.81,0,1.42,0.27,1.82,0.82c0.39,0.56,0.6,1.32,0.6,2.31v6.67h0.89
		h1.34v-0.42C656.45,64.1,656.32,63.98,656.08,63.96z M674.16,63.08c-0.04-0.06-0.11-0.1-0.19-0.1s-0.15,0.04-0.27,0.16
		c-0.11,0.12-0.28,0.26-0.47,0.41c-0.19,0.13-0.44,0.24-0.74,0.38c-0.29,0.12-0.68,0.18-1.13,0.18c-0.48,0-0.93-0.11-1.32-0.32
		c-0.4-0.21-0.73-0.48-1.01-0.87c-0.28-0.39-0.51-0.87-0.65-1.44c-0.15-0.56-0.23-1.22-0.23-1.95c0-0.71,0.08-1.33,0.23-1.9
		s0.37-1.05,0.65-1.46c0.28-0.39,0.64-0.7,1.04-0.91c0.41-0.21,0.88-0.32,1.42-0.32c0.47,0,0.98,0.12,1.58,0.35
		c0.01,0.28,0.01,0.56,0.04,0.81c0.01,0.24,0.03,0.43,0.05,0.58c0.01,0.15,0.01,0.22,0.01,0.26c0.03,0.33,0.15,0.49,0.41,0.49h0.45
		V54.8l-0.49-0.17c-0.32-0.1-0.7-0.22-1.13-0.33s-0.77-0.15-0.98-0.15c-0.68,0-1.25,0.1-1.77,0.38c-0.53,0.27-0.97,0.63-1.33,1.11
		c-0.35,0.48-0.61,1.05-0.8,1.71c-0.19,0.65-0.29,1.38-0.29,2.17c0,0.84,0.09,1.6,0.29,2.26c0.19,0.67,0.47,1.23,0.82,1.68
		c0.35,0.47,0.77,0.83,1.26,1.05c0.48,0.25,1,0.39,1.6,0.39c0.36,0,0.69-0.04,1.01-0.14c0.32-0.07,0.61-0.17,0.89-0.28
		c0.28-0.14,0.51-0.3,0.73-0.5c0.21-0.18,0.39-0.37,0.53-0.58L674.16,63.08z M689.29,54.12c-0.65,0-1.25,0.15-1.77,0.4
		c-0.52,0.26-0.94,0.61-1.3,1.06c-0.35,0.47-0.63,1.02-0.81,1.65c-0.19,0.63-0.31,1.32-0.31,2.07c0,0.88,0.12,1.68,0.32,2.37
		c0.2,0.7,0.48,1.26,0.85,1.75c0.37,0.48,0.82,0.84,1.34,1.08c0.52,0.25,1.1,0.36,1.73,0.36c0.36,0,0.72-0.01,1.05-0.11
		c0.33-0.07,0.67-0.18,0.97-0.31c0.29-0.12,0.57-0.27,0.81-0.47c0.24-0.18,0.45-0.37,0.6-0.58l-0.24-0.33
		c-0.04-0.06-0.12-0.1-0.19-0.1c-0.05,0-0.17,0.04-0.31,0.16c-0.12,0.12-0.31,0.26-0.56,0.41c-0.21,0.13-0.52,0.24-0.85,0.38
		c-0.33,0.12-0.74,0.18-1.21,0.18c-0.52,0-0.98-0.11-1.41-0.32c-0.44-0.21-0.78-0.49-1.09-0.9c-0.29-0.39-0.52-0.9-0.68-1.48
		c-0.17-0.59-0.25-1.31-0.25-2.08v-0.18h6.69c0.09,0,0.15-0.03,0.19-0.09c0.04-0.06,0.08-0.17,0.08-0.31c0-0.74-0.09-1.38-0.28-1.95
		c-0.19-0.57-0.44-1.08-0.77-1.45c-0.32-0.38-0.7-0.68-1.16-0.89C690.3,54.23,689.81,54.12,689.29,54.12z M689.32,54.89
		c0.43,0,0.8,0.08,1.14,0.25c0.36,0.17,0.65,0.39,0.9,0.71c0.24,0.31,0.44,0.67,0.57,1.11c0.13,0.45,0.2,0.94,0.2,1.51h-6.1
		c0.05-0.54,0.17-1.05,0.33-1.49c0.17-0.45,0.4-0.83,0.68-1.14c0.28-0.31,0.61-0.54,0.98-0.71
		C688.4,54.96,688.83,54.89,689.32,54.89z M725.49,61.94c-0.27,0-0.37,0.17-0.4,0.51c0,0.01,0,0.08-0.01,0.17
		c-0.01,0.09-0.01,0.22-0.04,0.43c-0.01,0.21-0.04,0.45-0.05,0.76h-5.04c-0.23,0-0.44,0.01-0.65,0.05
		c-0.23,0.01-0.41,0.06-0.63,0.12l4.12-4.74c0.37-0.45,0.74-0.87,1.08-1.29c0.33-0.42,0.65-0.84,0.92-1.27
		c0.25-0.45,0.47-0.9,0.61-1.4c0.15-0.48,0.24-0.97,0.24-1.54c0-0.68-0.11-1.26-0.32-1.77c-0.2-0.49-0.47-0.9-0.81-1.23
		c-0.36-0.35-0.77-0.6-1.21-0.76c-0.47-0.17-0.93-0.23-1.44-0.23c-0.55,0-1.05,0.06-1.52,0.26c-0.47,0.18-0.86,0.45-1.22,0.8
		c-0.36,0.33-0.66,0.75-0.89,1.26c-0.23,0.49-0.37,1.06-0.45,1.69l0.45,0.09h0.04h0.05c0.19,0,0.32-0.1,0.37-0.36
		c0.07-0.42,0.16-0.83,0.35-1.17c0.17-0.36,0.41-0.66,0.68-0.91c0.25-0.24,0.57-0.45,0.93-0.6c0.35-0.15,0.74-0.21,1.16-0.21
		c0.39,0,0.74,0.06,1.09,0.18c0.36,0.14,0.65,0.35,0.93,0.6c0.27,0.24,0.49,0.59,0.65,0.98c0.17,0.4,0.24,0.88,0.24,1.44
		c0,0.48-0.07,0.94-0.2,1.36c-0.13,0.42-0.32,0.84-0.55,1.23c-0.21,0.41-0.52,0.83-0.84,1.22c-0.31,0.41-0.65,0.83-1.02,1.25
		l-4.5,5.13c-0.07,0.06-0.08,0.12-0.12,0.21c-0.04,0.07-0.05,0.14-0.05,0.22v0.36h8.49v-0.45v-0.14v-2.24h-0.09H725.49z
		 M746.64,57.32c0-1.3-0.13-2.43-0.37-3.37c-0.24-0.94-0.6-1.74-1.02-2.37c-0.43-0.63-0.93-1.1-1.5-1.4
		c-0.59-0.28-1.17-0.47-1.82-0.47c-0.65,0-1.28,0.18-1.85,0.47c-0.57,0.3-1.08,0.76-1.5,1.4c-0.44,0.63-0.77,1.42-1.01,2.37
		c-0.24,0.94-0.37,2.07-0.37,3.37c0,1.31,0.13,2.44,0.37,3.39c0.24,0.95,0.57,1.74,1.01,2.37c0.43,0.63,0.93,1.09,1.5,1.38
		c0.57,0.3,1.2,0.46,1.85,0.46c0.65,0,1.24-0.17,1.82-0.46c0.57-0.29,1.08-0.75,1.5-1.38c0.43-0.63,0.78-1.42,1.02-2.37
		C746.51,59.76,746.64,58.62,746.64,57.32z M745.71,57.32c0,1.22-0.11,2.25-0.32,3.09c-0.2,0.84-0.48,1.56-0.81,2.1
		c-0.33,0.54-0.74,0.93-1.21,1.17c-0.47,0.26-0.96,0.39-1.45,0.39c-0.51,0-1-0.13-1.46-0.39c-0.47-0.24-0.86-0.63-1.22-1.17
		c-0.36-0.54-0.61-1.26-0.82-2.1c-0.2-0.84-0.29-1.88-0.29-3.09c0-1.2,0.09-2.22,0.29-3.09c0.21-0.85,0.47-1.55,0.82-2.1
		c0.36-0.54,0.74-0.94,1.21-1.19c0.47-0.26,0.94-0.39,1.45-0.39c0.51,0,1.01,0.13,1.48,0.39c0.47,0.24,0.88,0.65,1.21,1.19
		c0.33,0.55,0.61,1.24,0.81,2.1C745.6,55.1,745.71,56.12,745.71,57.32z M765.71,61.94c-0.27,0-0.37,0.17-0.4,0.51
		c0,0.01,0,0.08-0.01,0.17c-0.01,0.09-0.01,0.22-0.04,0.43c-0.01,0.21-0.04,0.45-0.05,0.76h-5.04c-0.23,0-0.44,0.01-0.65,0.05
		c-0.23,0.01-0.41,0.06-0.63,0.12l4.12-4.74c0.37-0.45,0.74-0.87,1.08-1.29c0.33-0.42,0.65-0.84,0.92-1.27
		c0.25-0.45,0.47-0.9,0.61-1.4c0.15-0.48,0.24-0.97,0.24-1.54c0-0.68-0.11-1.26-0.32-1.77c-0.2-0.49-0.47-0.9-0.81-1.23
		c-0.36-0.35-0.77-0.6-1.21-0.76c-0.47-0.17-0.93-0.23-1.44-0.23c-0.55,0-1.05,0.06-1.52,0.26c-0.47,0.18-0.86,0.45-1.22,0.8
		c-0.36,0.33-0.66,0.75-0.89,1.26c-0.23,0.49-0.37,1.06-0.45,1.69l0.45,0.09h0.04h0.05c0.19,0,0.32-0.1,0.37-0.36
		c0.07-0.42,0.16-0.83,0.35-1.17c0.17-0.36,0.41-0.66,0.68-0.91c0.25-0.24,0.57-0.45,0.93-0.6c0.35-0.15,0.74-0.21,1.16-0.21
		c0.39,0,0.74,0.06,1.09,0.18c0.36,0.14,0.65,0.35,0.93,0.6c0.27,0.24,0.49,0.59,0.65,0.98c0.17,0.4,0.24,0.88,0.24,1.44
		c0,0.48-0.07,0.94-0.2,1.36c-0.13,0.42-0.32,0.84-0.55,1.23c-0.21,0.41-0.52,0.83-0.84,1.22c-0.31,0.41-0.65,0.83-1.02,1.25
		l-4.5,5.13c-0.07,0.06-0.08,0.12-0.12,0.21c-0.04,0.07-0.05,0.14-0.05,0.22v0.36h8.49v-0.45v-0.14v-2.24h-0.09H765.71z
		 M786.86,57.32c0-1.3-0.13-2.43-0.37-3.37c-0.24-0.94-0.6-1.74-1.02-2.37c-0.43-0.63-0.93-1.1-1.5-1.4
		c-0.59-0.28-1.17-0.47-1.82-0.47c-0.65,0-1.28,0.18-1.85,0.47c-0.57,0.3-1.08,0.76-1.5,1.4c-0.44,0.63-0.77,1.42-1.01,2.37
		c-0.24,0.94-0.37,2.07-0.37,3.37c0,1.31,0.13,2.44,0.37,3.39c0.24,0.95,0.57,1.74,1.01,2.37c0.43,0.63,0.93,1.09,1.5,1.38
		c0.57,0.3,1.2,0.46,1.85,0.46c0.65,0,1.24-0.17,1.82-0.46c0.57-0.29,1.08-0.75,1.5-1.38c0.43-0.63,0.78-1.42,1.02-2.37
		C786.73,59.76,786.86,58.62,786.86,57.32z M785.93,57.32c0,1.22-0.11,2.25-0.32,3.09c-0.2,0.84-0.48,1.56-0.81,2.1
		c-0.33,0.54-0.74,0.93-1.21,1.17c-0.47,0.26-0.96,0.39-1.45,0.39c-0.51,0-1-0.13-1.46-0.39c-0.47-0.24-0.86-0.63-1.22-1.17
		c-0.36-0.54-0.61-1.26-0.82-2.1c-0.2-0.84-0.29-1.88-0.29-3.09c0-1.2,0.09-2.22,0.29-3.09c0.21-0.85,0.47-1.55,0.82-2.1
		c0.36-0.54,0.74-0.94,1.21-1.19c0.47-0.26,0.94-0.39,1.45-0.39s1.01,0.13,1.48,0.39c0.47,0.24,0.88,0.65,1.21,1.19
		c0.33,0.55,0.61,1.24,0.81,2.1C785.82,55.1,785.93,56.12,785.93,57.32z"/>
</g>
</svg>
